<?xml version="1.0" encoding="utf-8"?>
<!-- Generator: Adobe Illustrator 26.5.0, SVG Export Plug-In . SVG Version: 6.00 Build 0)  -->
<svg version="1.1" id="Camada_1" xmlns="http://www.w3.org/2000/svg" xmlns:xlink="http://www.w3.org/1999/xlink" x="0px" y="0px"
	 viewBox="0 0 344 337" style="enable-background:new 0 0 344 337;" xml:space="preserve">
<g>
	<circle cx="173" cy="55.2" r="20.9"/>
	<path d="M105.6,98c4.2,0,8.4-1,12-4.2c9.4-6.8,11.5-19.8,4.7-29.2c-4.2-5.2-10.4-8.4-16.7-8.4c-4.2,0-8.4,1-12,4.2
		c-9.4,6.8-11.5,19.8-4.7,29.2C93.1,95.4,99.4,98,105.6,98z M99.4,68.8c1.6-1.6,3.7-2.1,6.3-2.1l0,0c3.1,0,6.3,1.6,8.4,4.2
		c3.1,4.7,2.1,11-2.1,14.6c-1.6,1.6-3.7,2.1-6.3,2.1c-3.1,0-6.3-1.6-8.4-4.2c-1.6-2.1-2.1-5.2-2.1-7.8C95.2,73,97.3,70.4,99.4,68.8z
		"/>
	<path d="M70.1,114.8c-2.1-0.5-4.2-1-6.3-1c-8.9,0-17.2,5.7-19.8,14.6c-3.7,11,2.6,23,13.6,26.1c2.1,0.5,4.2,1,6.3,1
		c8.9,0,17.2-5.7,19.8-14.6C87.4,129.9,81.1,117.9,70.1,114.8z M73.8,137.7c-1.6,4.2-5.2,7.3-9.9,7.3c-1,0-2.1,0-3.1-0.5
		c-5.2-1.6-8.4-7.8-6.8-13.1c1-4.2,5.2-7.3,9.9-7.3l0,0c1,0,2.1,0,3.1,0.5c2.6,1,4.7,2.6,6.3,5.2C74.3,132.5,74.8,135.1,73.8,137.7z
		"/>
	<path d="M63.9,184.7c-2.1,0-4.2,0.5-6.3,1c-11,3.7-17.2,15.1-13.6,26.1c2.6,8.9,11,14.6,19.8,14.6c2.1,0,4.2-0.5,6.3-1
		c11-3.7,17.2-15.1,13.6-26.1C80.6,190.5,72.7,184.7,63.9,184.7z"/>
	<path d="M63.9,184.7L63.9,184.7L63.9,184.7z"/>
	<path d="M117.6,246.4c-3.7-3.1-7.8-4.2-12-4.2c-6.3,0-13.1,3.1-16.7,8.4c-6.8,9.4-4.7,22.5,4.7,29.2c3.7,2.6,7.8,4.2,12,4.2
		c6.3,0,13.1-3.1,16.7-8.4C129.1,266.2,127,253.1,117.6,246.4z"/>
	<circle cx="173" cy="285" r="20.9"/>
	<path d="M240.4,242.2c-4.2,0-8.4,1-12,4.2c-9.4,6.8-11.5,19.8-4.7,29.2c4.2,5.7,10.4,8.4,16.7,8.4c4.2,0,8.4-1,12-4.2
		c9.4-6.8,11.5-19.8,4.7-29.2C253.4,245.3,247.2,242.2,240.4,242.2z"/>
	<path d="M288.4,185.8c-2.1-0.5-4.2-1-6.3-1c-8.9,0-17.2,5.7-19.8,14.6c-3.7,11,2.6,23,13.6,26.1c2.1,0.5,4.2,1,6.3,1
		c8.9,0,17.2-5.7,19.8-14.6C305.6,200.9,299.4,188.9,288.4,185.8z"/>
	<path d="M282.1,155.5c2.1,0,4.2-0.5,6.3-1c11-3.7,17.2-15.1,13.6-26.1c-2.6-8.9-11-14.6-19.8-14.6c-2.1,0-4.2,0.5-6.3,1
		c-11,3.7-17.2,15.1-13.6,26.1C264.9,149.7,273.3,155.5,282.1,155.5z"/>
	<path d="M252.4,60.4c-3.1-3.1-7.8-4.2-12-4.2c-6.3,0-13.1,3.1-16.7,8.4c-6.8,9.4-4.7,22.5,4.7,29.2c3.7,2.6,7.8,4.2,12,4.2
		c6.3,0,13.1-3.1,16.7-8.4C263.9,80.3,261.8,67.2,252.4,60.4z"/>
</g>
</svg>
