<?xml version="1.0" encoding="utf-8"?>
<!-- Generator: Adobe Illustrator 26.5.0, SVG Export Plug-In . SVG Version: 6.00 Build 0)  -->
<svg version="1.1" id="Calque_1" xmlns="http://www.w3.org/2000/svg" xmlns:xlink="http://www.w3.org/1999/xlink" x="0px" y="0px"
	 viewBox="0 0 280 304.4" style="enable-background:new 0 0 280 304.4;" xml:space="preserve">
<style type="text/css">
	
		.st0{clip-path:url(#SVGID_00000077316400073417035830000008235531526156250810_);fill:url(#SVGID_00000026155453490516161980000013812114861376916101_);}
	
		.st1{clip-path:url(#SVGID_00000070821416688148984040000014095438530881121449_);fill:url(#SVGID_00000117648551660118214550000003482494732456689548_);}
	.st2{fill:#1D1D1B;}
	
		.st3{clip-path:url(#SVGID_00000183958045980011574950000001166771519172566415_);fill:url(#SVGID_00000111168647731090299830000011123126947481641397_);}
	
		.st4{clip-path:url(#SVGID_00000103969920673757862830000013082456099781572521_);fill:url(#SVGID_00000137122590168793965780000006313799897306967212_);}
	
		.st5{clip-path:url(#SVGID_00000103956604879355773860000009725647593316675245_);fill:url(#SVGID_00000101797109243849734480000000358527447136353930_);}
</style>
<g>
	<defs>
		<path id="SVGID_1_" d="M135.8,250.6c68.4,7.3,128.5-43.2,130.3-113.5c1-39.7-15.1-72.9-47.5-96.3c-37-26.8-77.2-29.8-119-11.7
			c-2.3,1-4.8,2-6.4,3.7c-1.2,1.3-2,4.4-1.3,5.5c1.1,1.7,3.8,3.3,5.8,3.3c2.3,0,4.7-1.6,6.9-2.7c21.9-10.2,44.7-12.8,68.1-7.4
			C222.7,43,264.8,91,253,154.3c-11.9,63.5-72.6,93.3-122,84.3C75.2,228.5,36.4,174.3,44.6,121c0.4-2.5,0.5-5,0.8-7.5
			c0.4-3.5-0.1-6.8-4.2-7.5c-4-0.7-5.7,2.2-6.5,5.6c-0.3,1-0.3,2.1-0.4,3.2c-7,47.2,9.2,85,46.4,114.2c2.6,2,4.9,4.4,7.4,6.7
			c2.9,1.1,6,1.8,8.8,3.2C109.2,245.1,122.2,249.1,135.8,250.6z"/>
	</defs>
	<clipPath id="SVGID_00000153706257411773524400000004974346547494699163_">
		<use xlink:href="#SVGID_1_"  style="overflow:visible;"/>
	</clipPath>
	
		<linearGradient id="SVGID_00000118385221033490148190000005816460788753381539_" gradientUnits="userSpaceOnUse" x1="141" y1="296.89" x2="141" y2="8.789904e-02">
		<stop  offset="0" style="stop-color:#86CDD8"/>
		<stop  offset="0.3792" style="stop-color:#B881B7"/>
		<stop  offset="0.66" style="stop-color:#E58CBA"/>
		<stop  offset="0.924" style="stop-color:#E6E677"/>
	</linearGradient>
	
		<rect x="10" y="0.1" style="clip-path:url(#SVGID_00000153706257411773524400000004974346547494699163_);fill:url(#SVGID_00000118385221033490148190000005816460788753381539_);" width="262" height="296.8"/>
</g>
<g>
	<defs>
		<path id="SVGID_00000084487866102686590270000012875744789946668435_" d="M56.2,268.6c0.1,7.7-1.5,15.5,0.9,23
			c26.9,1.8,176.5,0.9,185.7-1.2c0-6.2,0.3-12.6-0.1-19c-0.2-2.6-1.3-5.7-3.1-7.5c-8.8-9.4-17.9-18.5-27.3-28.2
			c-3,3.3-5.3,5.9-7.9,8.7c8.2,8.1,15.8,15.6,23.4,23.2c3.9,3.9,5.7,8.1,2.3,12.9c-54.5,0-108.4,0-162.2,0c-2.2-5.6-0.8-9.4,3-13.1
			c7.9-7.6,15.5-15.6,22.9-23c-2.2-3.3-3.9-5.8-5.6-8.3c-10.1,9.6-20.1,19.2-30.1,28.8C57.1,265.8,56.2,267.3,56.2,268.6z"/>
	</defs>
	<clipPath id="SVGID_00000170263693946592190290000010405430122791233959_">
		<use xlink:href="#SVGID_00000084487866102686590270000012875744789946668435_"  style="overflow:visible;"/>
	</clipPath>
	
		<linearGradient id="SVGID_00000080904362170162512140000008359155580772205447_" gradientUnits="userSpaceOnUse" x1="141" y1="296.89" x2="141" y2="8.789904e-02">
		<stop  offset="0" style="stop-color:#86CDD8"/>
		<stop  offset="0.3792" style="stop-color:#B881B7"/>
		<stop  offset="0.66" style="stop-color:#E58CBA"/>
		<stop  offset="0.924" style="stop-color:#E6E677"/>
	</linearGradient>
	
		<rect x="10" y="0.1" style="clip-path:url(#SVGID_00000170263693946592190290000010405430122791233959_);fill:url(#SVGID_00000080904362170162512140000008359155580772205447_);" width="262" height="296.8"/>
</g>
<path class="st2" d="M88.2,236.1C88.2,236,88.3,236,88.2,236.1c0-0.2-0.1-0.2-0.2-0.3c0,0,0,0-0.1,0
	C88.1,235.8,88.1,235.9,88.2,236.1z"/>
<g>
	<defs>
		<path id="SVGID_00000128466412718543053210000015140861508855189388_" d="M53.5,104.1c2.1,6.4,4.8,12.7,7.9,18.8
			c1.1,2.2,3.9,4.9,6,4.9c2,0,4.7-2.8,5.8-5c3.6-7.4,6.7-15,9.7-22.6c1.7-4.4,4.5-6.9,8.8-8.6c7.3-2.8,14.5-6,21.7-9.1
			c3-1.3,6.5-3.1,5.9-6.7c-0.4-2.2-3.3-4.5-5.6-5.7c-5.7-2.9-11.6-5.7-17.7-7.6c-7.8-2.4-12.5-7.1-15-15c-2-6.4-5-12.6-8-18.7
			c-1.1-2.3-3.6-3.9-6.1-6.4c-2.3,2.7-4.3,4.3-5.3,6.4c-3.3,7.1-6.7,14.2-9.3,21.7c-1.9,5.7-5.5,8.8-10.8,10.8
			c-6,2.2-12,4.7-17.8,7.3c-3.5,1.5-8.3,2.1-8.4,7.1c-0.1,5.6,5,6.2,8.8,7.9c4.9,2.1,9.8,4.5,14.8,6.1
			C46.3,92.2,51.1,96.6,53.5,104.1z M65.7,47.9c0.1-0.5,1.1-0.7,2.3-1.5c1.5,3.1,3.5,6.1,4.4,9.3C74.7,64.1,80,69,88.2,71.3
			c3.3,0.9,6.3,2.7,11.1,4.9c-5.3,2.3-9.1,4.4-13,5.5c-7.3,2-11.3,6.8-13.5,13.7c-1.2,3.7-3.1,7.1-5.1,11.7
			c-1.5-2.6-2.6-4.3-3.4-6.2C55.8,82.2,60.2,87.2,42,79c-1.6-0.7-3.1-1.5-6.2-3.1C51.7,71,62.3,63.1,65.7,47.9z"/>
	</defs>
	<clipPath id="SVGID_00000169536776823217808930000003436386398784346812_">
		<use xlink:href="#SVGID_00000128466412718543053210000015140861508855189388_"  style="overflow:visible;"/>
	</clipPath>
	
		<linearGradient id="SVGID_00000080186969475296176590000013508867904248798639_" gradientUnits="userSpaceOnUse" x1="141" y1="296.89" x2="141" y2="8.789904e-02">
		<stop  offset="0" style="stop-color:#86CDD8"/>
		<stop  offset="0.3792" style="stop-color:#B881B7"/>
		<stop  offset="0.66" style="stop-color:#E58CBA"/>
		<stop  offset="0.924" style="stop-color:#E6E677"/>
	</linearGradient>
	
		<rect x="10" y="0.1" style="clip-path:url(#SVGID_00000169536776823217808930000003436386398784346812_);fill:url(#SVGID_00000080186969475296176590000013508867904248798639_);" width="262" height="296.8"/>
</g>
<g>
	<defs>
		<path id="SVGID_00000065041053409224617490000007397354419360810917_" d="M150.3,117.9c4.8,2.2,8.1,5.5,10.2,10.4
			c1.8,4.3,3.9,8.5,6.3,12.4c3.9,6.5,8.1,6.6,11.8,0.2c2.5-4.3,4.7-8.8,6.7-13.4c2-4.5,5-7.6,9.5-9.6c4.6-2,9.1-4.2,13.4-6.7
			c2-1.1,3.5-3.1,5.5-4.9c-1.1-2.1-1.6-4-2.8-5.1c-1.5-1.4-3.5-2.6-5.5-3.3C193,93.3,184,85.5,180,72.6c-0.5-1.7-1.5-3.3-2.6-4.7
			c-3-4-6.9-4.2-9.5,0c-3,4.8-5.6,10-7.9,15.2c-2,4.5-5,7.5-9.6,9.5c-5.2,2.3-10.4,4.9-15.2,7.8c-4.3,2.7-4.5,6.6-0.2,9.4
			C139.9,113,145.1,115.5,150.3,117.9z M164.4,97.2c3.4-3.3,5.2-8,8.7-13.6c4.4,10.3,9.8,18,22.7,20.9c-11.3,5.6-19.6,10.7-22,23.6
			c-3.7-6.1-5.5-10.9-8.8-14.1c-3.4-3.4-8.3-5.3-13.7-8.5C156,102.5,160.9,100.6,164.4,97.2z"/>
	</defs>
	<clipPath id="SVGID_00000049205113780356812210000000414009904170994306_">
		<use xlink:href="#SVGID_00000065041053409224617490000007397354419360810917_"  style="overflow:visible;"/>
	</clipPath>
	
		<linearGradient id="SVGID_00000087387913431297120040000001314444328411429046_" gradientUnits="userSpaceOnUse" x1="141" y1="296.89" x2="141" y2="8.789904e-02">
		<stop  offset="0" style="stop-color:#86CDD8"/>
		<stop  offset="0.3792" style="stop-color:#B881B7"/>
		<stop  offset="0.66" style="stop-color:#E58CBA"/>
		<stop  offset="0.924" style="stop-color:#E6E677"/>
	</linearGradient>
	
		<rect x="10" y="0.1" style="clip-path:url(#SVGID_00000049205113780356812210000000414009904170994306_);fill:url(#SVGID_00000087387913431297120040000001314444328411429046_);" width="262" height="296.8"/>
</g>
<g>
	<defs>
		<path id="SVGID_00000058591545218185891090000008799923096661843363_" d="M119.7,133.7c-0.6-2-3.2-3.4-5.1-5.2
			c-1.8,1-3.3,1.4-4.1,2.4c-1.3,1.6-2.7,3.5-3.3,5.4c-3.2,10.8-10.4,17.4-21,20.8c-0.3,0.1-0.7,0.3-0.9,0.5
			c-1.9,1.9-4.8,3.6-5.4,5.9c-1.1,3.9,2.5,5.7,5.5,6.7c11.4,3.6,18.7,11,22.2,22.4c0.1,0.3,0.2,0.7,0.4,1c3.9,6.6,9.1,7.2,11.6,0.3
			c4.5-12.4,12.4-20,24.6-24.6c6.2-2.4,6.2-8.4-0.1-10.8C131.9,153.8,123.7,146.2,119.7,133.7z M114.2,176.6
			c-3.9-3.9-8.4-8.4-13-12.9c3.8-3.8,8.3-8.2,12.9-12.7c3.8,3.8,8.4,8.3,12.8,12.7C122.9,167.9,118.6,172.3,114.2,176.6z"/>
	</defs>
	<clipPath id="SVGID_00000101798719815978764490000014822077584561035661_">
		<use xlink:href="#SVGID_00000058591545218185891090000008799923096661843363_"  style="overflow:visible;"/>
	</clipPath>
	
		<linearGradient id="SVGID_00000072992162116620051020000009283147920623223973_" gradientUnits="userSpaceOnUse" x1="141" y1="296.89" x2="141" y2="8.789904e-02">
		<stop  offset="0" style="stop-color:#86CDD8"/>
		<stop  offset="0.3792" style="stop-color:#B881B7"/>
		<stop  offset="0.66" style="stop-color:#E58CBA"/>
		<stop  offset="0.924" style="stop-color:#E6E677"/>
	</linearGradient>
	
		<rect x="10" y="0.1" style="clip-path:url(#SVGID_00000101798719815978764490000014822077584561035661_);fill:url(#SVGID_00000072992162116620051020000009283147920623223973_);" width="262" height="296.8"/>
</g>
</svg>
