<?xml version="1.0" encoding="utf-8"?>
<!-- Generator: Adobe Illustrator 26.5.0, SVG Export Plug-In . SVG Version: 6.00 Build 0)  -->
<svg version="1.1" id="Layer_1" xmlns="http://www.w3.org/2000/svg" xmlns:xlink="http://www.w3.org/1999/xlink" x="0px" y="0px"
	 viewBox="0 0 886.7 1336.9" style="enable-background:new 0 0 886.7 1336.9;" xml:space="preserve">
<style type="text/css">
	.st0{fill:#FFFFFF;}
	.st1{fill:#231F20;}
	.st2{fill:none;stroke:#FBB040;stroke-width:6.6495;stroke-miterlimit:10;}
	.st3{fill:none;stroke:#FBB040;stroke-width:6.7299;stroke-linejoin:round;stroke-miterlimit:10;}
	.st4{fill:none;stroke:#FBB040;stroke-width:6.7299;stroke-miterlimit:10;}
</style>
<g>
	<path class="st1" d="M845.7,0H41C18.3,0,0,18.3,0,41v1254.9c0,22.6,18.3,41,41,41h804.7c22.6,0,41-18.3,41-41V41
		C886.7,18.3,868.3,0,845.7,0z"/>
	<g>
		<path class="st4" d="M825,180.2v976.5c-59.3,0-107.3,48-107.3,107.3H169c0-59.3-48-107.3-107.3-107.3V180.2
			c59.3,0,107.3-48,107.3-107.3h548.7C717.7,132.2,765.7,180.2,825,180.2z"/>
		<g>
			<polyline class="st4" points="733,72.9 825,72.9 825,164.9 			"/>
			<line class="st4" x1="758.6" y1="138" x2="823.6" y2="72.9"/>
			<line class="st4" x1="737" y1="106.7" x2="822" y2="74.4"/>
			<line class="st4" x1="786.6" y1="158" x2="823.6" y2="75.6"/>
		</g>
		<g>
			<polyline class="st4" points="62.1,165.7 62.1,73.7 154.1,73.7 			"/>
			<line class="st4" x1="127.1" y1="140.2" x2="62.1" y2="75.1"/>
			<line class="st4" x1="95.9" y1="161.7" x2="63.6" y2="76.7"/>
			<line class="st4" x1="147.1" y1="112.1" x2="64.8" y2="75.1"/>
		</g>
		<g>
			<polyline class="st4" points="825,1172 825,1264 733,1264 			"/>
			<line class="st4" x1="759.9" y1="1197.5" x2="825" y2="1262.6"/>
			<line class="st4" x1="791.1" y1="1176" x2="823.4" y2="1261"/>
			<line class="st4" x1="739.9" y1="1225.6" x2="822.3" y2="1262.6"/>
		</g>
		<g>
			<polyline class="st4" points="153.7,1264 61.7,1264 61.7,1172 			"/>
			<line class="st4" x1="128.1" y1="1198.9" x2="63.1" y2="1264"/>
			<line class="st4" x1="149.6" y1="1230.1" x2="64.7" y2="1262.4"/>
			<line class="st4" x1="100.1" y1="1178.9" x2="63.1" y2="1261.3"/>
		</g>
	</g>
	<g>
		<circle class="st4" cx="443.6" cy="490" r="136.1"/>
		<path class="st4" d="M476.8,536.9c-9.1,5.4-19.7,8.5-31.1,8.5c-33.8,0-61.2-27.4-61.2-61.2c0-33.8,27.4-61.1,61.2-61.1
			c11.3,0,21.9,3.1,31,8.5c-2.6-0.4-5.2-0.6-7.8-0.6c-29.4,0-53.3,23.8-53.3,53.3c0,29.4,23.8,53.3,53.3,53.3
			C471.6,537.4,474.3,537.2,476.8,536.9z"/>
		<polyline class="st4" points="349.5,391.8 229.6,391.8 443.6,762.5 657.7,391.8 537.8,391.8 		"/>
		<circle class="st4" cx="472.3" cy="484.2" r="29.3"/>
		<g>
			<line class="st4" x1="377.2" y1="424.3" x2="364" y2="410.9"/>
			<line class="st4" x1="521.1" y1="570.6" x2="508" y2="557.2"/>
		</g>
		<g>
			<line class="st4" x1="443" y1="396.8" x2="443" y2="378"/>
			<line class="st4" x1="443" y1="602.1" x2="443" y2="583.2"/>
		</g>
		<g>
			<line class="st4" x1="512.2" y1="425.5" x2="525.5" y2="412.2"/>
			<line class="st4" x1="367" y1="570.6" x2="380.3" y2="557.3"/>
		</g>
		<g>
			<line class="st4" x1="536.2" y1="485.6" x2="555.1" y2="485.6"/>
			<line class="st4" x1="331" y1="485.6" x2="349.8" y2="485.6"/>
		</g>
		<path class="st4" d="M574.6,750.3c-2.3-5.9-10.2-25.9-17.7-36.2c7.5-10.2,17.7-36.6,17.7-36.6s10.1,26.3,17.6,36.6
			C584.8,724.4,574.6,750.3,574.6,750.3z"/>
		<path class="st4" d="M443.7,314.4c-2.3-5.9-10.2-25.9-17.7-36.2c7.5-10.2,17.7-36.6,17.7-36.6s10.1,26.3,17.6,36.6
			C453.8,288.5,443.7,314.4,443.7,314.4z"/>
		<path class="st4" d="M312.7,750.3c-2.3-5.9-10.2-25.9-17.7-36.2c7.5-10.2,17.7-36.6,17.7-36.6s10.1,26.3,17.6,36.6
			C322.8,724.4,312.7,750.3,312.7,750.3z"/>
		<g>
			<line class="st4" x1="538.9" y1="327.6" x2="586.2" y2="268.8"/>
			<line class="st4" x1="498.1" y1="305.1" x2="510.4" y2="263.5"/>
			<line class="st4" x1="569.3" y1="359.8" x2="612" y2="343.7"/>
		</g>
		<g>
			<line class="st4" x1="350.4" y1="326.4" x2="303.2" y2="267.6"/>
			<line class="st4" x1="391.2" y1="304" x2="379" y2="262.3"/>
			<line class="st4" x1="320.1" y1="358.7" x2="277.4" y2="342.6"/>
		</g>
		<path class="st4" d="M536,799.4c9.5,16.1,14.9,34.8,14.9,54.8c0,59.6-48.3,107.9-107.9,107.9c-59.6,0-107.9-48.3-107.9-107.9
			c0-20,5.4-38.7,14.9-54.8c-0.7,4.5-1,9.1-1,13.8c0,51.9,42.1,94,94,94c51.9,0,94-42.1,94-94C537,808.5,536.7,803.9,536,799.4z"/>
		<path class="st4" d="M443.7,873.9c-2.3-5.9-10.2-25.9-17.7-36.2c7.5-10.2,17.7-36.6,17.7-36.6s10.1,26.3,17.6,36.6
			C453.8,847.9,443.7,873.9,443.7,873.9z"/>
		<g>
			<line class="st4" x1="443.6" y1="1000.6" x2="443.6" y2="1095.2"/>
			<line class="st4" x1="551" y1="951.7" x2="617.8" y2="1018.6"/>
			<line class="st4" x1="503.1" y1="985.2" x2="524" y2="1035.5"/>
			<line class="st4" x1="584.4" y1="907.3" x2="639.8" y2="921.6"/>
			<line class="st4" x1="584.4" y1="844.9" x2="679" y2="844.9"/>
		</g>
		<line class="st4" x1="335.7" y1="951.7" x2="268.8" y2="1018.6"/>
		<line class="st4" x1="383.5" y1="985.2" x2="362.6" y2="1035.5"/>
		<line class="st4" x1="302.3" y1="907.3" x2="246.9" y2="921.6"/>
		<line class="st4" x1="302.3" y1="844.9" x2="207.7" y2="844.9"/>
	</g>
</g>
</svg>
